<svg width="25" height="25" viewBox="0 0 25 25" fill="none" xmlns="http://www.w3.org/2000/svg">
<path class="btn--img" d="M5.20853 3.12503V21.875C5.20912 22.0649 5.26148 22.2509 5.35997 22.4132C5.45845 22.5755 5.59933 22.7079 5.76744 22.7961C5.93555 22.8842 6.12453 22.9249 6.31403 22.9137C6.50354 22.9024 6.68639 22.8397 6.84291 22.7323L20.3846 13.3573C20.946 12.9688 20.946 12.0334 20.3846 11.6438L6.84291 2.26878C6.68671 2.16026 6.50377 2.09663 6.31395 2.08478C6.12413 2.07294 5.9347 2.11334 5.76623 2.20161C5.59776 2.28987 5.4567 2.42261 5.35838 2.58541C5.26006 2.74821 5.20823 2.93484 5.20853 3.12503Z" fill="#A4A4A4"/>
</svg>