<svg width="25" height="25" viewBox="0 0 25 25" fill="none" xmlns="http://www.w3.org/2000/svg">
<path d="M19.7915 3.12503V21.875C19.7909 22.0649 19.7385 22.2509 19.64 22.4132C19.5416 22.5755 19.4007 22.7079 19.2326 22.7961C19.0644 22.8842 18.8755 22.9249 18.686 22.9137C18.4965 22.9024 18.3136 22.8397 18.1571 22.7323L4.61543 13.3573C4.05397 12.9688 4.05397 12.0334 4.61543 11.6438L18.1571 2.26878C18.3133 2.16026 18.4962 2.09663 18.686 2.08478C18.8759 2.07294 19.0653 2.11334 19.2338 2.20161C19.4022 2.28987 19.5433 2.42261 19.6416 2.58541C19.7399 2.74821 19.7918 2.93484 19.7915 3.12503Z" fill="#A4A4A4"/>
</svg>