<svg width="80" height="80" viewBox="0 0 80 80" fill="none" xmlns="http://www.w3.org/2000/svg">
<path d="M39.9998 67.2C24.9598 67.2 12.7998 55.04 12.7998 40C12.7998 24.96 24.9598 12.8 39.9998 12.8C55.0398 12.8 67.1998 24.96 67.1998 40C67.1998 55.04 55.0398 67.2 39.9998 67.2ZM39.9998 16C26.7198 16 15.9998 26.72 15.9998 40C15.9998 53.28 26.7198 64 39.9998 64C53.2798 64 63.9998 53.28 63.9998 40C63.9998 26.72 53.2798 16 39.9998 16Z" fill="#A4A4A4"/>
<path d="M40 55.04L24.48 39.52L26.72 37.28L40 50.56L53.28 37.28L55.52 39.52L40 55.04Z" fill="#A4A4A4"/>
<path d="M38.3999 25.6H41.5999V52.8H38.3999V25.6Z" fill="#A4A4A4"/>
</svg>